<svg xmlns="http://www.w3.org/2000/svg" width="64" height="64" fill="none"><path fill="url(#a)" stroke="url(#b)" stroke-width="2" d="M63 32c0 17.12-13.88 31-31 31C14.88 63 1 49.12 1 32 1 14.88 14.88 1 32 1c17.12 0 31 13.88 31 31Z"/><path fill="url(#c)" d="M39.727 17c-3.392 0-5.994 1.974-7.727 4.913C30.267 18.974 27.665 17 24.273 17c-2.629 0-5.027 1.149-6.753 3.234C15.895 22.198 15 24.82 15 27.618c0 3.043 1.102 5.855 3.469 8.852 2.074 2.627 5.053 5.33 8.502 8.46 1.275 1.157 2.594 2.354 3.995 3.66a1.512 1.512 0 0 0 2.068 0 400.59 400.59 0 0 1 3.995-3.66c3.449-3.13 6.428-5.833 8.502-8.46C47.898 33.473 49 30.66 49 27.618 49 21.897 45.214 17 39.727 17Z"/><defs><linearGradient id="a" x1="32" x2="32" y1="64" y2="0" gradientUnits="userSpaceOnUse"><stop stop-color="#FD6801"/><stop offset="1" stop-color="#FFD601"/></linearGradient><linearGradient id="b" x1="32" x2="32" y1="0" y2="64" gradientUnits="userSpaceOnUse"><stop stop-color="#FFEEAF" stop-opacity=".21"/><stop offset="1" stop-color="#FFF0B3" stop-opacity=".41"/></linearGradient><linearGradient id="c" x1="32" x2="32" y1="49" y2="17" gradientUnits="userSpaceOnUse"><stop stop-color="#FFBE5C"/><stop offset="1" stop-color="#fff"/></linearGradient></defs></svg>